<svg width="24" height="29" viewBox="0 0 24 29" fill="none" xmlns="http://www.w3.org/2000/svg">
<g id="fluent:cart-24-regular">
<g id="Group">
<path id="Vector" d="M2.5 5.65907C2.5 5.42399 2.57902 5.19854 2.71967 5.03231C2.86032 4.86609 3.05109 4.77271 3.25 4.77271H3.808C4.758 4.77271 5.328 5.52789 5.653 6.22989C5.87 6.69789 6.027 7.24034 6.15 7.73198C6.18327 7.72887 6.21663 7.7273 6.25 7.72725H18.748C19.578 7.72725 20.178 8.66561 19.95 9.60989L18.122 17.1842C17.9581 17.8635 17.6114 18.4613 17.1343 18.8869C16.6572 19.3126 16.0758 19.5429 15.478 19.5431H9.53C8.92749 19.5431 8.34165 19.3093 7.86252 18.8775C7.3834 18.4458 7.0375 17.8401 6.878 17.1534L6.118 13.8774L4.858 8.85707L4.857 8.84761C4.701 8.17752 4.555 7.54998 4.337 7.08198C4.128 6.62698 3.96 6.54543 3.809 6.54543H3.25C3.05109 6.54543 2.86032 6.45205 2.71967 6.28582C2.57902 6.1196 2.5 5.89415 2.5 5.65907ZM7.573 13.4473L8.324 16.6843C8.474 17.3248 8.967 17.7703 9.53 17.7703H15.478C15.7497 17.7703 16.014 17.6657 16.2309 17.4723C16.4478 17.2789 16.6054 17.0072 16.68 16.6984L18.417 9.49998H6.585L7.559 13.3846L7.573 13.4473Z" fill="white"/>
<path id="Vector_2" d="M11 23.0909C11 23.7178 10.7893 24.319 10.4142 24.7623C10.0391 25.2055 9.53043 25.4546 9 25.4546C8.46957 25.4546 7.96086 25.2055 7.58579 24.7623C7.21071 24.319 7 23.7178 7 23.0909C7 22.4641 7.21071 21.8629 7.58579 21.4196C7.96086 20.9763 8.46957 20.7273 9 20.7273C9.53043 20.7273 10.0391 20.9763 10.4142 21.4196C10.7893 21.8629 11 22.4641 11 23.0909V23.0909ZM9.5 23.0909C9.5 22.9342 9.44732 22.7839 9.35355 22.6731C9.25979 22.5623 9.13261 22.5 9 22.5C8.86739 22.5 8.74021 22.5623 8.64645 22.6731C8.55268 22.7839 8.5 22.9342 8.5 23.0909C8.5 23.2477 8.55268 23.398 8.64645 23.5088C8.74021 23.6196 8.86739 23.6818 9 23.6818C9.13261 23.6818 9.25979 23.6196 9.35355 23.5088C9.44732 23.398 9.5 23.2477 9.5 23.0909Z" fill="white"/>
<path id="Vector_3" d="M18 23.0909C18 23.7178 17.7893 24.319 17.4142 24.7623C17.0391 25.2055 16.5304 25.4546 16 25.4546C15.4696 25.4546 14.9609 25.2055 14.5858 24.7623C14.2107 24.319 14 23.7178 14 23.0909C14 22.4641 14.2107 21.8629 14.5858 21.4196C14.9609 20.9763 15.4696 20.7273 16 20.7273C16.5304 20.7273 17.0391 20.9763 17.4142 21.4196C17.7893 21.8629 18 22.4641 18 23.0909V23.0909ZM16.5 23.0909C16.5 22.9342 16.4473 22.7839 16.3536 22.6731C16.2598 22.5623 16.1326 22.5 16 22.5C15.8674 22.5 15.7402 22.5623 15.6464 22.6731C15.5527 22.7839 15.5 22.9342 15.5 23.0909C15.5 23.2477 15.5527 23.398 15.6464 23.5088C15.7402 23.6196 15.8674 23.6818 16 23.6818C16.1326 23.6818 16.2598 23.6196 16.3536 23.5088C16.4473 23.398 16.5 23.2477 16.5 23.0909Z" fill="white"/>
</g>
</g>
</svg>
