<svg width="16" height="20" viewBox="0 0 16 20" fill="none" xmlns="http://www.w3.org/2000/svg">
<g id="uil:envelope-alt">
<path id="Vector" d="M12.6666 3.6969H3.33325C2.80282 3.6969 2.29411 3.94592 1.91904 4.38919C1.54397 4.83246 1.33325 5.43366 1.33325 6.06054V13.9393C1.33325 14.5662 1.54397 15.1674 1.91904 15.6107C2.29411 16.0539 2.80282 16.303 3.33325 16.303H12.6666C13.197 16.303 13.7057 16.0539 14.0808 15.6107C14.4559 15.1674 14.6666 14.5662 14.6666 13.9393V6.06054C14.6666 5.43366 14.4559 4.83246 14.0808 4.38919C13.7057 3.94592 13.197 3.6969 12.6666 3.6969V3.6969ZM3.33325 5.27266H12.6666C12.8434 5.27266 13.013 5.35567 13.138 5.50342C13.263 5.65118 13.3333 5.85158 13.3333 6.06054L7.99992 9.90538L2.66659 6.06054C2.66659 5.85158 2.73682 5.65118 2.86185 5.50342C2.98687 5.35567 3.15644 5.27266 3.33325 5.27266V5.27266ZM13.3333 13.9393C13.3333 14.1483 13.263 14.3487 13.138 14.4964C13.013 14.6442 12.8434 14.7272 12.6666 14.7272H3.33325C3.15644 14.7272 2.98687 14.6442 2.86185 14.4964C2.73682 14.3487 2.66659 14.1483 2.66659 13.9393V7.8569L7.65325 11.4575C7.7546 11.5267 7.86956 11.5631 7.98659 11.5631C8.10361 11.5631 8.21857 11.5267 8.31992 11.4575L13.3333 7.8569V13.9393Z" fill="white"/>
</g>
</svg>
