<svg width="16" height="20" viewBox="0 0 16 20" fill="none" xmlns="http://www.w3.org/2000/svg">
<g id="uil:heart-alt">
<path id="Vector" d="M13.4401 3.99578C12.7323 3.15906 11.7939 2.65034 10.7956 2.56215C9.79726 2.47395 8.8053 2.81212 8.0001 3.51518C7.15187 2.76956 6.0961 2.43146 5.04538 2.56897C3.99467 2.70647 3.02706 3.30937 2.33742 4.25625C1.64777 5.20312 1.28732 6.42365 1.32864 7.67204C1.36996 8.92043 1.80998 10.1039 2.5601 10.9843L7.52677 16.854C7.58874 16.9278 7.66248 16.9864 7.74372 17.0264C7.82496 17.0664 7.91209 17.087 8.0001 17.087C8.08811 17.087 8.17525 17.0664 8.25649 17.0264C8.33773 16.9864 8.41146 16.9278 8.47344 16.854L13.4401 10.9843C13.8285 10.5255 14.1367 9.98078 14.3469 9.38122C14.5571 8.78167 14.6654 8.13903 14.6654 7.49003C14.6654 6.84103 14.5571 6.19839 14.3469 5.59883C14.1367 4.99927 13.8285 4.45455 13.4401 3.99578V3.99578ZM12.5001 9.87336L8.0001 15.1837L3.5001 9.87336C3.10355 9.40276 2.83342 8.80425 2.72359 8.1529C2.61376 7.50156 2.66912 6.82638 2.88274 6.21208C3.09635 5.59778 3.4587 5.07171 3.92433 4.69985C4.38996 4.328 4.93814 4.12692 5.5001 4.12185C6.25084 4.12402 6.97017 4.47823 7.5001 5.10669C7.56208 5.18054 7.63581 5.23915 7.71705 5.27915C7.79829 5.31915 7.88543 5.33975 7.97344 5.33975C8.06144 5.33975 8.14858 5.31915 8.22982 5.27915C8.31106 5.23915 8.38479 5.18054 8.44677 5.10669C8.99232 4.54799 9.6971 4.25511 10.4185 4.28732C11.1398 4.31953 11.8239 4.67442 12.3322 5.28018C12.8405 5.88593 13.1352 6.69729 13.1564 7.55006C13.1777 8.40282 12.924 9.23328 12.4468 9.87336H12.5001Z" fill="white"/>
</g>
</svg>
