<svg width="13" height="13" viewBox="0 0 13 13" fill="none" xmlns="http://www.w3.org/2000/svg">
<g id="bx:bxl-instagram-alt">
<path id="Vector" d="M11.2444 4.40715C11.2392 4.01499 11.1658 3.62671 11.0275 3.25971C10.9075 2.95015 10.7243 2.669 10.4896 2.43425C10.2548 2.1995 9.97369 2.01629 9.66413 1.89635C9.30184 1.76035 8.9191 1.68681 8.53222 1.67887C8.03409 1.6566 7.87616 1.65039 6.6117 1.65039C5.34723 1.65039 5.18516 1.65039 4.69066 1.67887C4.30395 1.68687 3.92139 1.76041 3.55927 1.89635C3.24966 2.01621 2.96847 2.19938 2.73371 2.43415C2.49895 2.66891 2.31577 2.9501 2.19591 3.25971C2.05964 3.62172 1.98626 4.00436 1.97895 4.3911C1.95668 4.88974 1.94995 5.04767 1.94995 6.31214C1.94995 7.5766 1.94995 7.73816 1.97895 8.23317C1.98671 8.62049 2.05972 9.00262 2.19591 9.3656C2.31597 9.67512 2.49928 9.95619 2.73413 10.1909C2.96897 10.4255 3.25018 10.6086 3.55979 10.7284C3.92092 10.8699 4.30354 10.9487 4.69118 10.9615C5.18982 10.9837 5.34775 10.9905 6.61222 10.9905C7.87668 10.9905 8.03875 10.9905 8.53325 10.9615C8.92013 10.9538 9.30289 10.8805 9.66516 10.7445C9.97465 10.6244 10.2557 10.4412 10.4905 10.2064C10.7252 9.97169 10.9084 9.69062 11.0285 9.38113C11.1647 9.01867 11.2377 8.63654 11.2455 8.24871C11.2677 7.75058 11.2745 7.59266 11.2745 6.32767C11.2734 5.06321 11.2734 4.90269 11.2444 4.40715ZM6.60859 8.70333C5.28613 8.70333 4.21481 7.63201 4.21481 6.30955C4.21481 4.98709 5.28613 3.91576 6.60859 3.91576C7.24346 3.91576 7.85233 4.16796 8.30125 4.61689C8.75018 5.06581 9.00238 5.67468 9.00238 6.30955C9.00238 6.94442 8.75018 7.55329 8.30125 8.00221C7.85233 8.45113 7.24346 8.70333 6.60859 8.70333ZM9.09765 4.38541C8.78853 4.38541 8.53947 4.13583 8.53947 3.82722C8.53947 3.75395 8.5539 3.6814 8.58193 3.61371C8.60997 3.54602 8.65107 3.48451 8.70288 3.4327C8.75469 3.3809 8.81619 3.3398 8.88388 3.31176C8.95158 3.28372 9.02413 3.26929 9.09739 3.26929C9.17066 3.26929 9.24321 3.28372 9.3109 3.31176C9.3786 3.3398 9.4401 3.3809 9.49191 3.4327C9.54372 3.48451 9.58481 3.54602 9.61285 3.61371C9.64089 3.6814 9.65532 3.75395 9.65532 3.82722C9.65532 4.13583 9.40574 4.38541 9.09765 4.38541Z" fill="white"/>
<path id="Vector_2" d="M6.60866 7.8643C7.46744 7.8643 8.16361 7.16812 8.16361 6.30935C8.16361 5.45057 7.46744 4.75439 6.60866 4.75439C5.74989 4.75439 5.05371 5.45057 5.05371 6.30935C5.05371 7.16812 5.74989 7.8643 6.60866 7.8643Z" fill="white"/>
</g>
</svg>
