<svg width="16" height="20" viewBox="0 0 16 20" fill="none" xmlns="http://www.w3.org/2000/svg">
<g id="bx:bx-phone-call">
<path id="Vector" d="M11.0441 17.878H11.0627C11.4147 17.878 11.7474 17.7141 11.9994 17.4163L13.8074 15.2796C13.8694 15.2065 13.9185 15.1196 13.9521 15.0241C13.9856 14.9285 14.0029 14.826 14.0029 14.7225C14.0029 14.6191 13.9856 14.5166 13.9521 14.421C13.9185 14.3255 13.8694 14.2386 13.8074 14.1655L11.1407 11.014C11.0789 10.9408 11.0054 10.8827 10.9245 10.843C10.8436 10.8034 10.757 10.783 10.6694 10.783C10.5818 10.783 10.4951 10.8034 10.4143 10.843C10.3334 10.8827 10.2599 10.9408 10.1981 11.014L9.1354 12.2699C8.64273 12.0965 7.7234 11.7026 7.14073 11.014C6.55806 10.3254 6.22473 9.23891 6.07806 8.65667L7.14073 7.40079C7.20269 7.32769 7.25185 7.24086 7.28539 7.14528C7.31893 7.0497 7.3362 6.94724 7.3362 6.84376C7.3362 6.74029 7.31893 6.63783 7.28539 6.54225C7.25185 6.44666 7.20269 6.35984 7.14073 6.28673L4.47406 3.13522C4.34661 2.99305 4.17799 2.91385 4.00273 2.91385C3.82747 2.91385 3.65885 2.99305 3.5314 3.13522L1.72406 5.27194C1.47073 5.57134 1.32806 5.98261 1.3334 6.40255C1.34873 7.52449 1.60006 11.4213 4.19873 14.4925C6.7974 17.5636 10.0947 17.8599 11.0441 17.878V17.878ZM4.0034 4.80631L5.7274 6.84376L4.8654 7.86249C4.78695 7.95494 4.72933 8.06912 4.69777 8.19462C4.66622 8.32012 4.66173 8.45296 4.68473 8.58103C4.70073 8.67164 5.09206 10.8202 6.19873 12.1281C7.3054 13.4359 9.1234 13.8984 9.20006 13.9173C9.30843 13.9447 9.42087 13.9394 9.52708 13.9021C9.6333 13.8648 9.72991 13.7966 9.80806 13.7038L10.6701 12.6851L12.3941 14.7225L11.0567 16.3022C10.2247 16.2857 7.37806 16.0218 5.1414 13.3776C2.8974 10.7256 2.68006 7.34958 2.66673 6.386L4.0034 4.80631ZM13.3327 9.21134H14.6661C14.6661 5.16952 12.0841 2.12122 8.6594 2.12122V3.69697C11.3674 3.69697 13.3327 6.0157 13.3327 9.21134V9.21134Z" fill="white"/>
<path id="Vector_2" d="M8.66602 6.84846C10.068 6.84846 10.666 7.55519 10.666 9.2121H11.9993C11.9993 6.67119 10.816 5.27271 8.66602 5.27271V6.84846V6.84846Z" fill="white"/>
</g>
</svg>
