<svg width="14" height="13" viewBox="0 0 14 13" fill="none" xmlns="http://www.w3.org/2000/svg">
<g id="akar-icons:twitter-fill">
<g id="Group">
<path id="Vector" d="M12.932 2.66303C12.4996 2.85461 12.0351 2.98406 11.5468 3.04257C12.0507 2.74111 12.4276 2.26664 12.6073 1.70769C12.1339 1.98885 11.6159 2.18675 11.0756 2.2928C10.7123 1.9049 10.2311 1.64779 9.70675 1.5614C9.18236 1.475 8.64411 1.56415 8.17557 1.815C7.70704 2.06586 7.33443 2.46438 7.1156 2.9487C6.89676 3.43302 6.84395 3.97604 6.96535 4.49345C6.00623 4.44529 5.06795 4.196 4.2114 3.76175C3.35485 3.3275 2.59919 2.718 1.99345 1.9728C1.78633 2.33008 1.66723 2.74432 1.66723 3.18549C1.667 3.58264 1.7648 3.9737 1.95196 4.32399C2.13912 4.67428 2.40984 4.97295 2.74011 5.19351C2.35708 5.18133 1.98251 5.07783 1.64756 4.89164V4.9227C1.64752 5.47972 1.84019 6.0196 2.19289 6.45073C2.54559 6.88186 3.03659 7.17768 3.58257 7.28801C3.22725 7.38417 2.85472 7.39834 2.49312 7.32944C2.64717 7.80872 2.94723 8.22783 3.35131 8.5281C3.75538 8.82837 4.24324 8.99477 4.74658 9.004C3.89213 9.67476 2.83688 10.0386 1.7506 10.037C1.55817 10.0371 1.36591 10.0258 1.1748 10.0034C2.27745 10.7123 3.561 11.0886 4.87189 11.0871C9.30943 11.0871 11.7353 7.41177 11.7353 4.22419C11.7353 4.12063 11.7327 4.01604 11.7281 3.91248C12.1999 3.57123 12.6072 3.14867 12.9309 2.66458L12.932 2.66303Z" fill="white"/>
</g>
</g>
</svg>
