<svg width="16" height="20" viewBox="0 0 16 20" fill="none" xmlns="http://www.w3.org/2000/svg">
<g id="carbon:user">
<path id="Vector" d="M8 2.54534C8.49445 2.54534 8.9778 2.71862 9.38893 3.04327C9.80005 3.36792 10.1205 3.82936 10.3097 4.36923C10.4989 4.90911 10.5484 5.50317 10.452 6.07629C10.3555 6.64942 10.1174 7.17587 9.76777 7.58907C9.41814 8.00227 8.97268 8.28366 8.48773 8.39766C8.00277 8.51166 7.50011 8.45315 7.04329 8.22953C6.58648 8.00591 6.19603 7.62722 5.92133 7.14135C5.64662 6.65547 5.5 6.08424 5.5 5.49989C5.5 4.71629 5.76339 3.96479 6.23223 3.41071C6.70108 2.85662 7.33696 2.54534 8 2.54534V2.54534ZM8 1.36353C7.30777 1.36353 6.63108 1.60612 6.05551 2.06063C5.47993 2.51514 5.03133 3.16115 4.76642 3.91697C4.50152 4.67279 4.4322 5.50448 4.56725 6.30685C4.7023 7.10923 5.03564 7.84626 5.52513 8.42474C6.01461 9.00322 6.63825 9.39717 7.31719 9.55677C7.99612 9.71637 8.69985 9.63446 9.33939 9.32139C9.97893 9.00832 10.5256 8.47815 10.9101 7.79793C11.2947 7.11771 11.5 6.31798 11.5 5.49989C11.5 4.40286 11.1313 3.35076 10.4749 2.57504C9.8185 1.79932 8.92826 1.36353 8 1.36353V1.36353Z" fill="white"/>
<path id="Vector_2" d="M13 17.909H12V14.9545C12 14.5665 11.9353 14.1823 11.8097 13.8238C11.6841 13.4654 11.4999 13.1397 11.2678 12.8653C11.0356 12.5909 10.76 12.3733 10.4567 12.2248C10.1534 12.0764 9.8283 11.9999 9.5 11.9999H6.5C5.83696 11.9999 5.20107 12.3112 4.73223 12.8653C4.26339 13.4194 4 14.1709 4 14.9545V17.909H3V14.9545C3 13.8574 3.36875 12.8053 4.02513 12.0296C4.6815 11.2539 5.57174 10.8181 6.5 10.8181H9.5C10.4283 10.8181 11.3185 11.2539 11.9749 12.0296C12.6313 12.8053 13 13.8574 13 14.9545V17.909Z" fill="white"/>
</g>
</svg>
